<svg width="89" height="90" viewBox="0 0 89 90" fill="none" xmlns="http://www.w3.org/2000/svg">
<path d="M88.315 46.898C88.34 46.297 88.362 45.652 88.362 45C88.362 44.385 88.346 43.731 88.311 42.942C88.311 42.939 88.311 42.937 88.311 42.934C88.303 42.76 88.294 42.586 88.284 42.413C88.284 42.408 88.284 42.404 88.283 42.399C88.248 41.771 88.203 41.165 88.148 40.596L88.141 40.507C88.137 40.464 88.134 40.42 88.13 40.377C88.129 40.367 88.128 40.357 88.127 40.347C88.066 39.746 87.986 39.104 87.882 38.384C87.879 38.361 87.875 38.338 87.872 38.316C87.854 38.195 87.835 38.075 87.817 37.954C87.814 37.933 87.811 37.913 87.808 37.892L87.798 37.826C87.715 37.299 87.622 36.769 87.522 36.25L87.488 36.068C87.482 36.033 87.475 35.999 87.468 35.965C87.466 35.954 87.464 35.943 87.462 35.933C87.455 35.895 87.448 35.857 87.44 35.82C87.32 35.232 87.184 34.629 87.022 33.976C87.008 33.918 86.992 33.86 86.977 33.802C86.97 33.773 86.962 33.744 86.955 33.716C86.94 33.658 86.925 33.599 86.91 33.541L86.869 33.386C86.751 32.936 86.622 32.473 86.485 32.01L86.427 31.811C86.392 31.689 86.356 31.566 86.318 31.445C86.144 30.883 85.952 30.307 85.749 29.732C85.695 29.581 85.639 29.431 85.583 29.281L85.519 29.109C85.371 28.709 85.214 28.305 85.054 27.909L84.992 27.755C84.924 27.587 84.857 27.419 84.786 27.252C84.556 26.706 84.32 26.174 84.084 25.67C84.016 25.524 83.944 25.379 83.873 25.234L83.777 25.037C83.601 24.676 83.422 24.318 83.237 23.964L83.217 23.926C83.104 23.709 82.991 23.492 82.874 23.277C82.578 22.731 82.307 22.251 82.045 21.808C82.037 21.793 82.021 21.787 82.008 21.777C78.405 15.712 73.434 10.586 67.537 6.829C67.528 6.814 67.521 6.797 67.505 6.787C67.403 6.722 67.297 6.669 67.194 6.605C66.504 6.174 65.801 5.762 65.087 5.37C64.808 5.217 64.524 5.076 64.242 4.929C63.689 4.64 63.129 4.363 62.563 4.098C62.291 3.971 62.02 3.842 61.746 3.721C60.936 3.362 60.117 3.021 59.283 2.711C59.191 2.677 59.098 2.649 59.006 2.615C58.225 2.331 57.432 2.072 56.631 1.832C56.414 1.767 56.196 1.704 55.978 1.643C55.183 1.418 54.38 1.213 53.568 1.033C53.471 1.012 53.375 0.986 53.278 0.965C52.366 0.77 51.443 0.607 50.512 0.47C50.318 0.442 50.124 0.42 49.93 0.394C49.194 0.296 48.452 0.217 47.705 0.157C47.459 0.137 47.213 0.115 46.966 0.0999999C46.045 0.0399999 45.118 0 44.181 0C44.065 0 43.95 0.0039999 43.835 0.0079999C43.747 0.0109999 43.658 0.0139998 43.569 0.0159998C31.261 0.188 20.159 5.509 12.239 13.96C12.224 13.969 12.199 13.984 12.188 13.991C12.178 13.997 12.17 14.004 12.162 14.012C11.823 14.375 11.478 14.756 11.134 15.147C11.012 15.287 10.892 15.429 10.773 15.571L10.542 15.843C10.367 16.048 10.192 16.253 10.02 16.465C9.892 16.634 9.773 16.806 9.65 16.977C5.543 22.216 2.562 28.404 1.076 35.165C1.071 35.174 1.067 35.184 1.065 35.194C1.047 35.277 1.029 35.367 1.011 35.452C0.94 35.787 0.872 36.124 0.808 36.462C0.797 36.522 0.786 36.576 0.774 36.638C0.746 36.791 0.719 36.944 0.693 37.097L0.679 37.175C0.637 37.414 0.599 37.633 0.564 37.844C0.537 38.014 0.509 38.184 0.484 38.356C0.481 38.377 0.477 38.398 0.474 38.419C0.474 38.42 0.476 38.421 0.476 38.422C0.167 40.569 0 42.765 0 45C0 50.927 1.142 56.584 3.195 61.771C3.196 61.777 3.188 61.783 3.191 61.789C3.233 61.895 3.281 61.997 3.324 62.103C3.471 62.466 3.626 62.825 3.782 63.184C3.877 63.402 3.964 63.628 4.061 63.843C4.067 63.857 4.079 63.866 4.089 63.876C8.902 74.439 17.62 82.79 28.347 87C28.358 87.01 28.369 87.02 28.383 87.026C28.525 87.081 28.658 87.129 28.797 87.181C28.928 87.231 29.059 87.28 29.191 87.329C29.686 87.512 30.171 87.685 30.648 87.841C30.653 87.843 30.658 87.836 30.664 87.838C34.927 89.236 39.467 90 44.181 90C46.014 90 47.816 89.872 49.591 89.651C49.596 89.651 49.602 89.651 49.607 89.65C49.661 89.643 49.718 89.634 49.773 89.627C50.446 89.54 51.114 89.438 51.778 89.321C51.843 89.31 51.903 89.301 51.969 89.289L52.174 89.253C52.319 89.228 52.463 89.202 52.606 89.174C52.657 89.164 52.707 89.153 52.757 89.143C52.947 89.105 53.137 89.066 53.327 89.026C53.379 89.015 53.431 89.005 53.483 88.994C53.986 88.884 54.58 88.751 55.163 88.599C55.173 88.597 55.188 88.592 55.197 88.587C55.2 88.586 55.202 88.584 55.205 88.583C72.503 84.042 85.718 69.066 88 50.67C88.001 50.665 88.003 50.66 88.003 50.655C88.007 50.62 88.011 50.581 88.015 50.546C88.097 49.866 88.164 49.182 88.217 48.493C88.218 48.477 88.22 48.464 88.221 48.448L88.24 48.203C88.253 48.043 88.266 47.882 88.275 47.721C88.275 47.714 88.276 47.708 88.276 47.701C88.291 47.437 88.304 47.173 88.315 46.908V46.898ZM88.068 46.897L88.064 46.981C88.054 47.216 88.043 47.451 88.029 47.685C88.014 47.947 87.99 48.207 87.97 48.468C87.911 49.212 87.845 49.881 87.77 50.511C87.766 50.547 87.761 50.582 87.757 50.618C84.954 58.465 81.585 62.848 80.266 64.368C80.247 64.39 80.237 64.417 80.236 64.446C80.157 67.95 78.562 79.687 61.384 83.633C61.348 83.641 61.317 83.665 61.301 83.699C61.294 83.714 61.289 83.729 61.282 83.752C61.22 83.846 59.701 86.086 55.125 88.348C54.515 88.508 53.897 88.65 53.277 88.783C53.088 88.823 52.898 88.862 52.707 88.9C52.392 88.963 52.074 89.017 51.757 89.073C51.345 89.145 50.944 89.212 50.559 89.27C56.511 87.255 59.245 84.743 60.163 83.73C60.207 83.681 60.205 83.605 60.158 83.559C59.216 82.641 56.919 80.118 55.953 76.521C55.938 76.467 55.89 76.43 55.834 76.43C55.832 76.43 55.83 76.43 55.828 76.43C55.12 76.465 54.547 76.481 54.023 76.481C45.864 76.481 38.28 73.878 36.15 73.08C36.112 73.066 36.069 73.072 36.035 73.095C34.363 74.292 29.936 77.178 24.932 78.125C24.898 78.131 24.869 78.152 24.851 78.181C24.833 78.21 24.828 78.245 24.837 78.279C25.348 80.15 26.73 83.788 30.271 87.44C30.054 87.366 29.837 87.293 29.621 87.216C29.35 87.118 29.079 87.022 28.798 86.915C28.695 86.876 28.594 86.832 28.491 86.792C25.39 83.153 24.253 79.732 23.851 78.013C23.844 77.985 23.828 77.96 23.805 77.943C21.905 76.515 12.371 69.218 11.252 65.792C11.235 65.74 11.183 65.706 11.13 65.707C8.226 65.835 5.801 64.688 4.291 63.718C4.151 63.41 4.012 63.102 3.879 62.791C3.803 62.613 3.725 62.439 3.651 62.26C3.633 62.217 3.618 62.173 3.601 62.131C4.469 62.843 7.367 64.958 11.042 64.828C11.105 64.826 11.156 64.776 11.16 64.713C11.372 61.427 13.621 54.431 15.041 52.638C15.075 52.594 15.076 52.533 15.043 52.488C12.669 49.287 11.116 34.823 10.946 33.185C10.941 33.136 10.907 33.095 10.861 33.08C9.226 32.564 6.287 31.594 4.969 30.89C4.91 30.859 4.837 30.879 4.804 30.937L0.808 37.892C0.881 37.428 0.964 36.967 1.051 36.508C1.119 36.15 1.186 35.819 1.252 35.507C1.27 35.422 1.291 35.337 1.31 35.252L4.491 29.716C4.498 29.704 4.502 29.692 4.505 29.679C4.941 27.498 6.326 22.016 9.85 17.123C10.656 16.095 11.506 15.105 12.396 14.154C13.307 13.602 18.961 10.237 23.313 9.098C23.331 9.093 23.347 9.085 23.361 9.073C25.178 7.538 31.887 2.413 41.931 0.928C41.94 0.927 41.95 0.924 41.959 0.92L43.596 0.261C43.62 0.261 43.644 0.259 43.667 0.259C43.839 0.257 44.008 0.246 44.181 0.246C45.09 0.246 45.996 0.283 46.9 0.34C47.146 0.355 47.39 0.378 47.634 0.397C48.338 0.453 49.039 0.526 49.738 0.616C49.954 0.644 50.171 0.669 50.386 0.7C52.184 0.961 53.96 1.335 55.706 1.819C55.919 1.878 56.131 1.941 56.342 2.004C57.033 2.207 57.719 2.428 58.399 2.665C58.595 2.734 58.794 2.798 58.989 2.869C59.805 3.167 60.612 3.489 61.41 3.836C61.636 3.935 61.857 4.043 62.082 4.146C62.65 4.405 63.213 4.676 63.771 4.96C64.083 5.119 64.395 5.28 64.703 5.447C65.217 5.725 65.725 6.017 66.229 6.316C66.436 6.439 66.648 6.555 66.853 6.682C65.081 6.328 59.867 5.362 57.381 5.725C57.319 5.734 57.274 5.787 57.276 5.85C57.354 9.15 57.537 16.93 57.543 17.894C57.543 17.938 57.567 17.978 57.604 18C60.533 19.694 69.398 27.124 70.494 30.191C70.511 30.24 70.558 30.273 70.61 30.273C72.793 30.259 78.337 30.353 82.687 31.524C82.741 31.539 82.798 31.515 82.826 31.466C83.786 29.786 82.859 25.152 82.29 22.779C84.216 26.192 85.722 29.881 86.714 33.78C86.722 33.809 86.729 33.838 86.736 33.867C86.913 34.567 87.074 35.274 87.218 35.987C87.22 35.997 87.222 36.007 87.224 36.017C87.356 36.672 87.469 37.333 87.572 37.997C87.591 38.115 87.609 38.234 87.627 38.352C87.727 39.032 87.815 39.716 87.884 40.406C87.887 40.438 87.89 40.471 87.892 40.503L87.895 40.532C87.957 41.161 88.002 41.794 88.037 42.431C88.047 42.603 88.056 42.776 88.063 42.948C88.093 43.629 88.114 44.313 88.114 45.002C88.116 45.636 88.094 46.267 88.068 46.897ZM87.624 51.684C86.295 60.684 82.325 68.813 76.547 75.227C79.895 70.948 80.43 66.479 80.482 64.496C81.771 63.002 84.906 58.896 87.624 51.684ZM81.838 21.974C82.305 23.771 83.626 29.335 82.658 31.259C78.35 30.119 72.931 30.013 70.697 30.025C69.419 26.746 60.425 19.379 57.79 17.822C57.777 16.613 57.604 9.242 57.526 5.954C60.5 5.58 67.331 7.031 67.401 7.046C67.406 7.047 67.411 7.043 67.417 7.044C73.299 10.793 78.254 15.915 81.838 21.974ZM42.892 0.279L41.881 0.686C31.82 2.178 25.083 7.299 23.224 8.866C19.514 9.843 14.887 12.408 12.997 13.51C20.68 5.616 31.223 0.624 42.892 0.279ZM4.267 29.61L1.494 34.435C2.737 29.225 4.868 24.365 7.73 20.043C5.575 24.014 4.619 27.853 4.267 29.61ZM0.717 38.482C0.757 38.441 0.797 38.401 0.823 38.357L4.957 31.163C6.316 31.86 9.095 32.781 10.708 33.291C10.914 35.263 12.443 49.213 14.789 52.56C13.333 54.501 11.176 61.2 10.92 64.586C6.702 64.677 3.53 61.753 3.498 61.722C3.471 61.697 3.444 61.683 3.418 61.669C1.38 56.513 0.246 50.89 0.246 45C0.246 42.786 0.411 40.611 0.717 38.482ZM4.465 64.114C5.933 65.006 8.107 65.966 10.693 65.966C10.81 65.966 10.929 65.962 11.048 65.957C12.277 69.379 20.919 76.08 23.62 78.113C24.023 79.811 25.138 83.089 28.029 86.606C17.662 82.416 9.22 74.326 4.465 64.114ZM30.764 87.612C30.752 87.591 30.74 87.57 30.718 87.548C27.094 83.924 25.655 80.275 25.109 78.343C30.054 77.372 34.416 74.553 36.125 73.335C38.346 74.162 45.9 76.729 54.023 76.729C54.526 76.729 55.074 76.714 55.741 76.682C56.709 80.183 58.906 82.666 59.901 83.653C58.884 84.745 55.993 87.292 49.777 89.27C49.699 89.295 49.629 89.349 49.559 89.408C47.795 89.628 46.003 89.755 44.181 89.755C39.502 89.754 34.996 88.998 30.764 87.612ZM61.487 83.888C61.494 83.878 61.499 83.868 61.504 83.858C66.603 82.679 70.33 80.813 73.064 78.681C68.275 82.948 62.573 86.172 56.298 88.009C60.107 85.915 61.428 83.977 61.487 83.888Z" fill="black"/>
<path d="M87.6251 48.018C87.2511 39.298 84.1751 34.271 82.8661 32.512C82.8501 32.49 82.8271 32.475 82.8011 32.467C78.4281 31.21 72.3141 31.142 70.5441 31.152C70.4921 31.152 70.4451 31.186 70.4281 31.235C69.5291 33.888 66.3671 42.745 63.4301 45.347C63.3921 45.381 63.3781 45.435 63.3971 45.483C64.8211 49.229 68.1811 58.429 68.6161 62.949C68.6221 63.011 68.6731 63.059 68.7351 63.06C70.7511 63.113 77.4961 63.31 79.6551 63.628C79.6611 63.629 79.6671 63.629 79.6731 63.629C79.7091 63.629 79.7441 63.613 79.7671 63.585C81.2221 61.843 84.9041 56.85 87.6621 48.147C87.6751 48.106 87.6661 48.062 87.6381 48.03C87.6341 48.027 87.6301 48.022 87.6251 48.018ZM79.6211 63.376C77.4181 63.068 70.9691 62.875 68.8491 62.818C68.3721 58.263 65.0891 49.248 63.6561 45.475C66.5901 42.792 69.6991 34.142 70.6331 31.398C72.4921 31.39 78.4241 31.475 82.6941 32.692C84.0081 34.47 87.0331 39.467 87.3841 48.121C87.3851 48.139 87.3891 48.155 87.3971 48.171C84.6821 56.688 81.0901 61.605 79.6211 63.376Z" fill="black"/>
<path d="M24.203 19.479C26.308 19.902 37.034 22.124 41.527 24.282C41.544 24.29 41.562 24.294 41.58 24.294C41.6 24.294 41.62 24.289 41.639 24.279C42.829 23.633 53.353 17.961 56.548 17.719C56.613 17.714 56.663 17.659 56.662 17.594C56.642 16.365 56.547 12.113 56.393 5.621L56.389 5.459C56.388 5.41 56.358 5.367 56.313 5.348C54.144 4.451 48.441 2.305 42.367 1.753C42.357 1.752 42.348 1.752 42.339 1.754C32.992 3.064 26.505 7.655 24.15 9.567C24.121 9.59 24.105 9.626 24.105 9.663V19.357C24.104 19.417 24.146 19.468 24.203 19.479ZM24.35 9.723C26.725 7.803 33.14 3.297 42.358 2.001C48.326 2.545 53.933 4.637 56.144 5.546L56.146 5.627C56.296 11.931 56.39 16.122 56.413 17.484C53.148 17.836 43.624 22.922 41.576 24.032C37.091 21.902 26.665 19.725 24.349 19.256V9.723H24.35Z" fill="black"/>
<path d="M67.785 63.823C67.785 59.973 64.147 49.956 62.583 45.827C62.567 45.785 62.529 45.754 62.484 45.748C60.047 45.431 47.758 43.793 45.142 42.732C45.096 42.713 45.044 42.724 45.009 42.758C43.127 44.622 33.624 54.072 31.389 57.099C31.362 57.136 31.357 57.185 31.378 57.226C32.49 59.493 35.866 70.125 36.532 72.234C36.544 72.27 36.571 72.299 36.607 72.312C38.798 73.123 46.145 75.6 54.014 75.6C54.652 75.6 55.294 75.584 55.937 75.549C55.967 75.548 55.995 75.535 56.016 75.514C56.411 75.131 57.187 74.445 58.17 73.575C61.225 70.874 66.339 66.354 67.79 63.998C67.806 63.971 67.812 63.939 67.806 63.908C67.803 63.894 67.799 63.879 67.795 63.865C67.789 63.849 67.785 63.834 67.785 63.823ZM58.006 73.393C57.047 74.24 56.285 74.915 55.877 75.307C47.445 75.753 39.176 72.997 36.748 72.103C36.047 69.884 32.772 59.583 31.632 57.186C33.912 54.141 43.132 44.965 45.126 42.99C47.894 44.053 59.8 45.646 62.38 45.983C63.953 50.14 67.54 60.035 67.54 63.823C67.54 63.858 67.546 63.889 67.553 63.915C66.083 66.252 61.032 70.718 58.006 73.393Z" fill="black"/>
<path d="M44.497 42.027C44.529 41.996 44.541 41.95 44.529 41.907C43.784 39.202 41.707 28.541 41.43 25.284C41.426 25.242 41.401 25.204 41.363 25.185C36.91 22.921 24.315 20.399 23.781 20.293C23.744 20.286 23.706 20.295 23.678 20.32C21.956 21.773 16.016 26.986 11.848 33.086C11.832 33.11 11.824 33.139 11.827 33.168C12.326 37.987 14.043 50.802 15.966 52.209C16.041 52.264 16.093 52.345 16.122 52.45C16.134 52.493 16.168 52.526 16.21 52.536C18.947 53.227 28.071 55.558 30.577 56.564C30.592 56.57 30.607 56.573 30.623 56.573C30.661 56.573 30.697 56.555 30.721 56.524C33.183 53.254 42.629 43.874 44.497 42.027ZM30.583 56.301C27.967 55.28 19.124 53.018 16.338 52.314C16.29 52.188 16.213 52.084 16.113 52.01C14.473 50.81 12.77 39.848 12.078 33.187C16.191 27.18 22.024 22.041 23.793 20.545C24.855 20.758 36.823 23.185 41.192 25.373C41.496 28.766 43.498 39.036 44.274 41.903C42.303 43.851 33.115 52.982 30.583 56.301Z" fill="black"/>
</svg>
