<svg width="48" height="48" viewBox="0 0 48 48" fill="none" xmlns="http://www.w3.org/2000/svg">
<g clip-path="url(#clip0_105_1606)">
<path d="M40.3015 6.78431C36.1555 2.84697 30.5901 0.395945 24.4504 0.275818L25.8393 6.02034L32.9136 8.91973L40.3015 6.78431Z" fill="#F1F1F1"/>
<path d="M37.7299 32.4716L40.0166 24.8213L33.2041 18.7359L25.2957 21.0858L22.6824 28.8361L27.1187 33.9047L37.7299 32.4716Z" fill="#F1F1F1"/>
<path d="M23.7782 20.58L19.089 14.2944L9.1153 16.365L7.43457 22.345L14.0469 29.99L21.1597 28.3514L23.7782 20.58Z" fill="#F1F1F1"/>
<path d="M41.5733 8.08044L34.1033 10.2391V17.3966L41.3778 23.8935L47.6708 23.4194C47.5349 17.5236 45.2593 12.1569 41.5733 8.08044Z" fill="#F1F1F1"/>
<path d="M22.8113 0.298981C15.5236 0.653041 9.0989 4.29006 4.99243 9.77009L8.81965 14.7938L18.8271 12.7137L24.2539 6.26531L22.8113 0.298981Z" fill="#F1F1F1"/>
<path d="M23.0057 46.9253V46.8547L22.0932 41.4579L13.9709 39.0401L8.92554 42.2714C12.8213 45.4811 17.747 47.4817 23.1433 47.6687L23.0173 46.9253H23.0057Z" fill="#F1F1F1"/>
<path d="M13.1637 37.6592V31.4173L6.20424 23.3656L0.266357 23.9768C0.266357 30.7513 3.11201 36.8578 7.66737 41.1787L13.1637 37.6592Z" fill="#F1F1F1"/>
<path d="M27.5 35.469L23.6438 41.0391L24.765 47.6688C31.2571 47.457 37.0875 44.6398 41.2435 40.2224L37.8294 34.0685L27.5 35.469Z" fill="#F1F1F1"/>
<path d="M23.1185 1.12091C23.0895 1.14989 23.06 1.17887 23.0311 1.20785L22.8113 0.298462C15.5236 0.653049 9.0989 4.29007 4.99243 9.77009L8.81965 14.7938L14.2196 13.6716C16.0194 9.44712 18.991 5.26531 23.119 1.12618L23.1185 1.12091Z" fill="#DBDBDB"/>
<path d="M9.1125 16.3655L7.43335 22.3429L12.6115 28.3335C11.7442 23.9947 12.0546 19.6991 13.5346 15.4461L9.1125 16.3655Z" fill="#DBDBDB"/>
<path d="M23.0057 46.9253V46.8547L22.9636 46.6039C22.9773 46.6192 22.992 46.634 23.0057 46.6492V46.6324C21.0089 44.4738 19.267 42.3241 17.8213 40.1855L17.8218 40.1861L13.9709 39.0396L8.92554 42.2714C12.8213 45.4812 17.747 47.4817 23.1433 47.6687L23.0173 46.9253H23.0057Z" fill="#DBDBDB"/>
<path d="M13.1637 37.6592V31.4173L6.20424 23.3656L0.266357 23.9768C0.266357 30.7513 3.11201 36.8578 7.66737 41.1787L13.1637 37.6592Z" fill="#DBDBDB"/>
<path d="M13.1638 31.4173V37.6592L7.66794 41.1792C8.06942 41.5602 8.47985 41.9316 8.90715 42.2836L13.9715 39.0401L22.0938 41.458L23.1438 47.6688C23.422 47.6782 23.6992 47.6898 23.98 47.6898C24.2434 47.6898 24.5042 47.6782 24.7656 47.6698L23.6444 41.0391L27.5006 35.469L37.8294 34.0685L41.2441 40.2235C41.2799 40.1856 41.3168 40.1481 41.3526 40.1097C41.4728 39.9822 41.5882 39.852 41.7046 39.7224C43.3864 37.8304 44.7715 35.6697 45.7831 33.3093C45.829 33.1992 45.8753 33.0896 45.9196 32.9784C45.9781 32.8356 46.0334 32.6913 46.0898 32.5474C47.1024 29.8567 47.6335 26.902 47.6857 23.6849C47.6846 23.5958 47.6809 23.5078 47.6788 23.4188L41.379 23.893L34.1039 17.3966V10.239L41.5739 8.08042C41.1677 7.631 40.7409 7.20107 40.3015 6.78431L32.9132 8.9192L25.8388 6.01981L24.4505 0.275821C24.2929 0.272659 24.1375 0.263702 23.9795 0.263702C23.5869 0.263702 23.1976 0.27424 22.8098 0.293207L24.2534 6.26534L18.8266 12.7138L8.81916 14.7939L4.99194 9.77011C4.99036 9.77222 4.9893 9.7738 4.98772 9.77538C3.45294 11.8808 2.31594 14.061 1.54038 16.3102C1.48822 16.463 1.43448 16.6142 1.38548 16.7686C1.3428 16.9008 1.30381 17.0341 1.26377 17.1669C1.19159 17.4077 1.12204 17.6495 1.05724 17.8935C1.033 17.9841 1.00876 18.0752 0.986107 18.1659C0.906022 18.4846 0.831206 18.8055 0.763766 19.129C0.757444 19.159 0.750067 19.1885 0.744272 19.2186C0.668402 19.5905 0.601489 19.9657 0.543532 20.344C0.537737 20.3835 0.532995 20.423 0.527199 20.4625C0.481361 20.7723 0.442372 21.0847 0.408125 21.3988C0.394954 21.5242 0.383362 21.6496 0.371771 21.775C0.350169 22.0115 0.332255 22.2491 0.317503 22.4873C0.309073 22.6253 0.299589 22.7634 0.293267 22.9019C0.27746 23.2586 0.265869 23.6164 0.265869 23.9768L6.20375 23.3656L13.1638 31.4173ZM25.2945 21.0837L33.2035 18.7359L40.0186 24.8224L37.7309 32.4689L27.1202 33.9073L22.6818 28.8346L25.2945 21.0837ZM9.11263 16.3655L19.088 14.2923L23.7761 20.5826L21.158 28.3504L14.0442 29.9921L7.43348 22.3429L9.11263 16.3655Z" fill="#57595D"/>
<path d="M23.0311 1.20786C23.3441 0.892791 23.6533 0.57772 23.9795 0.263702C23.587 0.263702 23.1976 0.27424 22.8098 0.293207L23.0311 1.20786Z" fill="#3F4042"/>
<path d="M13.1637 31.4173V37.6592L7.6679 41.1792C8.06938 41.5601 8.47981 41.9316 8.90711 42.2835L13.9714 39.0401L17.8224 40.1866C15.1284 36.2008 13.394 32.2503 12.6116 28.3345L7.43344 22.344L9.11259 16.3666L13.5341 15.4477C13.7401 14.855 13.9672 14.2633 14.2191 13.6727L8.81912 14.7949L4.9919 9.77115C4.99032 9.77326 4.98874 9.77484 4.98768 9.77642C3.4529 11.8818 2.31643 14.062 1.54034 16.3107C1.51505 16.3845 1.48976 16.4577 1.46552 16.532C1.43865 16.611 1.41073 16.6895 1.38544 16.7696C1.34276 16.9019 1.30377 17.0352 1.26373 17.1679C1.19313 17.4035 1.12516 17.64 1.06194 17.8787C1.06036 17.884 1.05878 17.8892 1.0572 17.8945C1.03296 17.9851 1.00872 18.0758 0.986069 18.1669C0.905984 18.4857 0.830641 18.8071 0.763727 19.1311C0.757405 19.1611 0.750029 19.1906 0.744233 19.2201C0.668363 19.5921 0.60145 19.9672 0.543494 20.3455C0.537698 20.3845 0.533483 20.4235 0.527687 20.4625C0.483957 20.7554 0.448129 21.051 0.415463 21.3471C0.413356 21.365 0.410721 21.3824 0.408614 21.3998C0.395442 21.5252 0.383851 21.6506 0.372259 21.776C0.352765 21.9852 0.338012 22.1959 0.324314 22.4072C0.322733 22.4346 0.319572 22.4615 0.317991 22.4889C0.309561 22.6269 0.300077 22.7649 0.293755 22.9035C0.277949 23.2602 0.266357 23.6179 0.266357 23.9783L6.20424 23.3672L13.1637 31.4173Z" fill="#3F4042"/>
<path d="M23.1433 47.6688C23.4215 47.6782 23.6986 47.6898 23.9794 47.6898C23.6301 47.3273 23.2977 46.9659 22.9636 46.6039L23.1433 47.6688Z" fill="#3F4042"/>
</g>
<defs>
<clipPath id="clip0_105_1606">
<rect width="48" height="48" fill="white"/>
</clipPath>
</defs>
</svg>
