<svg width="113" height="129" viewBox="0 0 113 129" fill="none" xmlns="http://www.w3.org/2000/svg">
<path fill-rule="evenodd" clip-rule="evenodd" d="M51.2829 1.57507C48.1597 3.25291 46.0228 6.71687 45.5561 10.859C45.2413 13.6498 45.9136 17.3454 48.1312 25.0145C51.4197 36.3875 52.5579 42.6943 53.2302 53.2642C53.5709 58.6116 53.4358 60.083 52.6477 59.6163C46.9536 56.2455 36.2873 47.0488 27.6941 38.1023C27.6941 38.1023 24.3409 33.9627 16.8624 28.23C15.4295 27.1316 12.586 26.8291 12.586 26.8291C8.9617 26.5597 7.3829 26.8594 5.19809 28.23C0.183037 31.3775 -1.28665 38.7343 2.07491 43.8644C3.87194 46.6065 8.50174 48.8106 16.8624 50.9048C20.746 51.8776 26.3788 53.4555 29.3795 54.4099C35.7509 56.4377 50.363 63.4353 50.363 64.4584C50.363 65.3574 43.1472 69.0186 36.2789 71.6037C33.3462 72.7075 25.657 74.92 19.1916 76.5206C6.47557 79.6681 2.99818 81.4685 1.16674 85.8515C-1.5225 92.2868 0.517095 97.9716 6.45962 100.6C13.5227 103.724 16.5896 101.99 31.4384 86.4727C37.3834 80.259 43.6768 74.5414 46.2737 72.9945C54.0594 68.3547 53.7136 68.1717 53.2 76.654C52.5679 87.0938 50.6979 96.9006 47.8844 104.533C43.9664 115.157 44.0931 119.336 48.4745 124.005C53.304 129.15 59.5915 129.595 64.0786 125.107C68.4894 120.697 68.5204 117.866 64.3296 102.696C58.9352 83.1749 57.4965 73.5141 59.5093 70.3363C60.7213 68.4243 69.7056 75.1852 82.2579 87.4555C94.3453 99.2717 97.2116 101.281 101.982 101.281C113.528 101.281 116.239 87.5453 106.05 80.6787C104.615 79.7118 98.5814 77.6814 92.6397 76.1656C81.7459 73.3865 66.3684 67.8359 63.4987 65.6461C62.6442 64.9948 62.1708 64.0975 62.4461 63.6518C63.3467 62.1956 77.3813 56.76 90.2316 52.8915C104.248 48.6721 109.337 46.16 111.21 42.5366C114.128 36.8945 111.439 29.792 105.536 27.5451C100.195 25.5122 96.0701 27.7541 85.6354 38.3583C76.1433 48.0049 72.0574 51.4562 64.3002 56.3806L59.3523 59.5214L59.8257 49.9748C60.1959 42.4946 60.9546 38.1586 63.3283 29.9372C68.2661 12.8399 68.0873 6.22082 62.5913 2.61921C59.7342 0.747483 53.837 0.202751 51.2829 1.57507Z" fill="#37393F"/>
</svg>
